<svg width="156" height="32" viewBox="0 0 156 32" fill="none" xmlns="http://www.w3.org/2000/svg">
<path fill-rule="evenodd" clip-rule="evenodd" d="M0.836461 0C0.374497 0 0 0.38205 0 0.853333V31.1467C0 31.4474 0.152455 31.7117 0.382811 31.8637L28.9756 2.13675L12.7724 32H30.5308C30.9928 32 31.3673 31.618 31.3673 31.1467V0.853333C31.3673 0.382051 30.9928 0 30.5308 0H0.836461Z" fill="url(#paint0_linear)"/>
<path d="M55.4611 10.3353C55.3419 10.5349 55.219 10.6823 55.0914 10.7778C54.9722 10.8645 54.815 10.9079 54.6192 10.9079C54.4323 10.9079 54.2282 10.8429 54.007 10.7127C53.7945 10.5739 53.5436 10.4264 53.2546 10.2703C52.9651 10.1141 52.6335 9.97096 52.2596 9.84083C51.8853 9.70203 51.4474 9.63261 50.9455 9.63261C50.0609 9.63261 49.3976 9.83648 48.9556 10.2442C48.5135 10.6433 48.2923 11.1682 48.2923 11.8189C48.2923 12.2353 48.4114 12.5823 48.6494 12.8599C48.8962 13.1288 49.2149 13.3631 49.6063 13.5626C50.0057 13.7622 50.4566 13.94 50.9585 14.0962C51.4599 14.2523 51.9744 14.4259 52.5017 14.6167C53.0291 14.7989 53.5436 15.0158 54.0454 15.2674C54.5469 15.519 54.9936 15.8356 55.3846 16.2174C55.7844 16.5991 56.1031 17.0676 56.3415 17.6228C56.5879 18.1694 56.7112 18.8374 56.7112 19.6269C56.7112 20.4857 56.5623 21.2926 56.265 22.0473C55.9756 22.7934 55.5548 23.4484 55.0019 24.0123C54.449 24.5676 53.7648 25.0057 52.9484 25.3267C52.1404 25.6477 51.222 25.8082 50.1931 25.8082C49.6063 25.8082 49.0196 25.7475 48.4328 25.626C47.8544 25.5045 47.2931 25.3354 46.749 25.1185C46.2132 24.9016 45.7072 24.6413 45.2308 24.3377C44.7544 24.034 44.3379 23.6957 43.9807 23.3226L45.1032 21.4747C45.1969 21.336 45.3203 21.2231 45.4734 21.1364C45.6265 21.041 45.7879 20.9933 45.9581 20.9933C46.1877 20.9933 46.4299 21.08 46.685 21.2535C46.9401 21.427 47.2337 21.6179 47.5654 21.8261C47.897 22.0343 48.2797 22.2252 48.7134 22.3987C49.1555 22.5722 49.6829 22.659 50.2952 22.659C51.1881 22.659 51.8769 22.4507 52.3616 22.0343C52.8547 21.6179 53.1015 20.9976 53.1015 20.1734C53.1015 19.6963 52.9781 19.3102 52.7314 19.0152C52.4934 18.7203 52.1785 18.473 51.7874 18.2735C51.3964 18.0739 50.9497 17.9047 50.4482 17.7659C49.9464 17.6184 49.4319 17.458 48.9045 17.2845C48.3772 17.1109 47.8627 16.9027 47.3613 16.6598C46.8594 16.4169 46.4127 16.0959 46.0217 15.6968C45.6306 15.2978 45.3115 14.8033 45.0652 14.2133C44.8268 13.6234 44.708 12.8903 44.708 12.0141C44.708 11.3113 44.8439 10.6303 45.1162 9.97096C45.3881 9.31163 45.7879 8.72603 46.3153 8.21416C46.8422 7.70229 47.4888 7.29021 48.2542 6.97789C49.0279 6.66558 49.9125 6.50942 50.9074 6.50942C52.0212 6.50942 53.0505 6.68725 53.9944 7.04296C54.9467 7.38997 55.7501 7.87582 56.4051 8.50045L55.4611 10.3353ZM58.7777 29.9334V12.1832H60.9462C61.3883 12.1832 61.6815 12.3914 61.8262 12.8079L62.0943 13.94C62.3578 13.6451 62.6384 13.3761 62.9362 13.1332C63.2335 12.8816 63.5527 12.6691 63.8927 12.4955C64.2327 12.3134 64.5986 12.1746 64.9897 12.0791C65.3807 11.975 65.8061 11.923 66.2653 11.923C66.9713 11.923 67.6174 12.0791 68.2042 12.3914C68.7994 12.6951 69.3096 13.1419 69.7349 13.7318C70.1603 14.3131 70.4919 15.0288 70.7299 15.879C70.9679 16.7292 71.0871 17.7009 71.0871 18.794C71.0871 19.8004 70.9511 20.733 70.6789 21.5919C70.4154 22.4421 70.0369 23.1795 69.5438 23.8041C69.0503 24.4288 68.4552 24.9189 67.758 25.2746C67.0691 25.6216 66.2992 25.7952 65.4489 25.7952C64.7346 25.7952 64.1265 25.6867 63.625 25.4698C63.1315 25.253 62.6894 24.958 62.2984 24.5849V29.9334H58.7777ZM65.0537 14.7208C64.4326 14.7208 63.9098 14.8466 63.4845 15.0982C63.0679 15.3498 62.6723 15.7098 62.2984 16.1783V22.0603C62.63 22.4507 62.9872 22.724 63.3699 22.8802C63.7609 23.0363 64.1775 23.1144 64.62 23.1144C65.0449 23.1144 65.4318 23.032 65.7806 22.8672C66.1294 22.7024 66.4267 22.4464 66.6735 22.0994C66.9286 21.7437 67.1243 21.2926 67.2603 20.746C67.3962 20.1994 67.4644 19.5488 67.4644 18.794C67.4644 18.0479 67.405 17.4146 67.2858 16.8941C67.1754 16.3735 67.0135 15.9527 66.8011 15.6318C66.597 15.3108 66.346 15.0808 66.0486 14.9421C65.7509 14.7946 65.4192 14.7208 65.0537 14.7208ZM79.284 11.975C80.2702 11.975 81.1673 12.1355 81.9753 12.4565C82.7833 12.7775 83.4763 13.2373 84.0547 13.8359C84.6327 14.4259 85.0794 15.1459 85.3939 15.9961C85.7084 16.8464 85.8661 17.805 85.8661 18.8721C85.8661 19.9392 85.7084 20.9022 85.3939 21.761C85.0794 22.6113 84.6327 23.3357 84.0547 23.9343C83.4763 24.5329 82.7833 24.9927 81.9753 25.3137C81.1673 25.6347 80.2702 25.7952 79.284 25.7952C78.289 25.7952 77.3831 25.6347 76.5667 25.3137C75.7587 24.9927 75.0657 24.5329 74.4877 23.9343C73.9093 23.3357 73.4584 22.6113 73.1356 21.761C72.8206 20.9022 72.6634 19.9392 72.6634 18.8721C72.6634 17.805 72.8206 16.8464 73.1356 15.9961C73.4584 15.1459 73.9093 14.4259 74.4877 13.8359C75.0657 13.2373 75.7587 12.7775 76.5667 12.4565C77.3831 12.1355 78.289 11.975 79.284 11.975ZM79.284 23.1014C80.2873 23.1014 81.0313 22.7501 81.5161 22.0473C82.0008 21.336 82.2434 20.2819 82.2434 18.8851C82.2434 17.497 82.0008 16.4516 81.5161 15.7489C81.0313 15.0375 80.2873 14.6818 79.284 14.6818C78.2547 14.6818 77.4981 15.0375 77.0134 15.7489C76.5287 16.4516 76.2861 17.497 76.2861 18.8851C76.2861 20.2819 76.5287 21.336 77.0134 22.0473C77.4981 22.7501 78.2547 23.1014 79.284 23.1014ZM92.3687 25.8082C91.7732 25.8082 91.2462 25.7214 90.787 25.5479C90.3278 25.3657 89.9405 25.1098 89.626 24.7801C89.3115 24.4504 89.0731 24.0514 88.9116 23.5829C88.7502 23.1144 88.6695 22.5852 88.6695 21.9953V14.7599H87.4319C87.245 14.7599 87.0831 14.6992 86.9472 14.5777C86.8197 14.4562 86.7561 14.274 86.7561 14.0311V12.6257L88.8606 12.2353L89.575 8.76072C89.6686 8.37032 89.9279 8.17512 90.3533 8.17512H92.1902V12.2613H95.5833V14.7599H92.1902V21.761C92.1902 22.1341 92.2751 22.4291 92.4453 22.6459C92.6239 22.8628 92.8744 22.9713 93.1977 22.9713C93.3679 22.9713 93.5122 22.9539 93.6314 22.9192C93.7506 22.8758 93.8526 22.8325 93.9375 22.7891C94.0224 22.737 94.099 22.6936 94.1671 22.659C94.2437 22.6156 94.3202 22.5939 94.3967 22.5939C94.4988 22.5939 94.5837 22.6199 94.6519 22.672C94.72 22.7154 94.7878 22.7934 94.856 22.9062L95.9149 24.624C95.4302 25.0144 94.8815 25.3093 94.2692 25.5089C93.6569 25.7084 93.0233 25.8082 92.3687 25.8082ZM101.015 6.1971V25.6H97.4946V6.1971H101.015ZM107.57 12.1832V25.6H104.049V12.1832H107.57ZM107.99 8.37032C107.99 8.67398 107.931 8.95592 107.812 9.21619C107.693 9.47645 107.531 9.70634 107.327 9.90589C107.131 10.1054 106.898 10.2616 106.626 10.3744C106.362 10.4871 106.077 10.5435 105.771 10.5435C105.482 10.5435 105.205 10.4871 104.942 10.3744C104.687 10.2616 104.461 10.1054 104.266 9.90589C104.07 9.70634 103.913 9.47645 103.794 9.21619C103.683 8.95592 103.628 8.67398 103.628 8.37032C103.628 8.06666 103.683 7.78472 103.794 7.52445C103.913 7.25553 104.07 7.02129 104.266 6.82173C104.461 6.62218 104.687 6.46602 104.942 6.35326C105.205 6.24049 105.482 6.18408 105.771 6.18408C106.077 6.18408 106.362 6.24049 106.626 6.35326C106.898 6.46602 107.131 6.62218 107.327 6.82173C107.531 7.02129 107.693 7.25553 107.812 7.52445C107.931 7.78472 107.99 8.06666 107.99 8.37032ZM115.472 11.949C116.033 11.949 116.561 12.0097 117.054 12.1312C117.556 12.2439 118.015 12.4088 118.432 12.6257H122.297V13.94C122.297 14.1482 122.237 14.3131 122.118 14.4345C122.007 14.556 121.821 14.6471 121.557 14.7078L120.486 14.929C120.63 15.3541 120.702 15.8096 120.702 16.2954C120.702 16.9635 120.566 17.5664 120.294 18.1043C120.031 18.6335 119.665 19.089 119.197 19.4707C118.729 19.8437 118.176 20.1344 117.539 20.3426C116.901 20.5421 116.212 20.6419 115.472 20.6419C115.243 20.6419 115.017 20.6332 114.796 20.6159C114.575 20.5985 114.358 20.5725 114.146 20.5378C113.797 20.7547 113.623 20.9976 113.623 21.2665C113.623 21.5181 113.742 21.7003 113.98 21.8131C114.226 21.9259 114.545 22.0083 114.936 22.0603C115.336 22.1037 115.787 22.1341 116.289 22.1514C116.799 22.1601 117.313 22.1861 117.832 22.2295C118.359 22.2729 118.874 22.351 119.376 22.4638C119.886 22.5679 120.337 22.7457 120.728 22.9973C121.128 23.2402 121.446 23.5655 121.685 23.9733C121.931 24.3811 122.054 24.9059 122.054 25.5479C122.054 26.1465 121.91 26.7278 121.621 27.2917C121.332 27.8556 120.91 28.3588 120.358 28.8013C119.813 29.2437 119.142 29.5994 118.343 29.8683C117.543 30.1373 116.633 30.2718 115.613 30.2718C114.601 30.2718 113.721 30.172 112.972 29.9725C112.232 29.7816 111.616 29.5213 111.123 29.1917C110.638 28.8707 110.277 28.4976 110.038 28.0725C109.8 27.6474 109.681 27.205 109.681 26.7451C109.681 26.1465 109.86 25.639 110.217 25.2226C110.574 24.8062 111.063 24.4722 111.684 24.2206C111.352 24.0297 111.088 23.7825 110.893 23.4788C110.697 23.1665 110.599 22.7631 110.599 22.2686C110.599 21.8695 110.74 21.4531 111.021 21.0193C111.31 20.5768 111.747 20.2081 112.334 19.9131C111.663 19.5401 111.131 19.0499 110.74 18.4426C110.357 17.8267 110.166 17.1109 110.166 16.2954C110.166 15.6274 110.297 15.0245 110.561 14.4866C110.833 13.9487 111.208 13.4932 111.684 13.1202C112.16 12.7384 112.721 12.4478 113.368 12.2483C114.014 12.0487 114.716 11.949 115.472 11.949ZM118.802 26.1465C118.802 25.9123 118.729 25.7214 118.585 25.5739C118.44 25.4264 118.245 25.3093 117.998 25.2226C117.76 25.1358 117.475 25.0751 117.143 25.0404C116.812 24.997 116.459 24.9667 116.085 24.9493C115.711 24.9233 115.319 24.9016 114.911 24.8842C114.512 24.8669 114.12 24.8365 113.737 24.7931C113.44 24.9753 113.197 25.1922 113.011 25.4438C112.823 25.6867 112.73 25.9643 112.73 26.2767C112.73 26.4935 112.777 26.6931 112.87 26.8753C112.972 27.0575 113.138 27.2136 113.368 27.3438C113.597 27.4739 113.899 27.5736 114.273 27.6431C114.647 27.7211 115.115 27.7602 115.676 27.7602C116.255 27.7602 116.744 27.7211 117.143 27.6431C117.543 27.565 117.866 27.4522 118.113 27.3047C118.359 27.1659 118.534 26.9968 118.636 26.7972C118.747 26.5976 118.802 26.3808 118.802 26.1465ZM115.472 18.3906C116.195 18.3906 116.726 18.204 117.067 17.831C117.415 17.458 117.59 16.9765 117.59 16.3865C117.59 15.7706 117.415 15.2891 117.067 14.9421C116.726 14.5863 116.195 14.4085 115.472 14.4085C114.75 14.4085 114.218 14.5863 113.878 14.9421C113.537 15.2891 113.368 15.7706 113.368 16.3865C113.368 16.9678 113.537 17.4493 113.878 17.831C114.226 18.204 114.758 18.3906 115.472 18.3906ZM124.127 25.6V6.1971H127.648V13.5106C128.141 13.0508 128.681 12.6821 129.268 12.4045C129.855 12.1182 130.552 11.975 131.36 11.975C132.074 11.975 132.708 12.1008 133.26 12.3524C133.813 12.604 134.277 12.9554 134.651 13.4065C135.034 13.8576 135.319 14.3955 135.505 15.0201C135.701 15.6448 135.799 16.3301 135.799 17.0762V25.6H132.291V17.0762C132.291 16.3301 132.121 15.7532 131.781 15.3455C131.441 14.929 130.939 14.7208 130.275 14.7208C129.774 14.7208 129.306 14.8336 128.872 15.0592C128.447 15.276 128.039 15.5754 127.648 15.9571V25.6H124.127ZM142.969 25.8082C142.374 25.8082 141.847 25.7214 141.387 25.5479C140.928 25.3657 140.541 25.1098 140.226 24.7801C139.912 24.4504 139.674 24.0514 139.512 23.5829C139.351 23.1144 139.27 22.5852 139.27 21.9953V14.7599H138.032C137.845 14.7599 137.684 14.6992 137.548 14.5777C137.42 14.4562 137.357 14.274 137.357 14.0311V12.6257L139.461 12.2353L140.175 8.76072C140.269 8.37032 140.528 8.17512 140.954 8.17512H142.791V12.2613H146.184V14.7599H142.791V21.761C142.791 22.1341 142.876 22.4291 143.046 22.6459C143.224 22.8628 143.475 22.9713 143.798 22.9713C143.968 22.9713 144.113 22.9539 144.232 22.9192C144.351 22.8758 144.453 22.8325 144.538 22.7891C144.623 22.737 144.7 22.6936 144.768 22.659C144.844 22.6156 144.921 22.5939 144.997 22.5939C145.099 22.5939 145.185 22.6199 145.252 22.672C145.32 22.7154 145.389 22.7934 145.456 22.9062L146.515 24.624C146.031 25.0144 145.482 25.3093 144.87 25.5089C144.257 25.7084 143.624 25.8082 142.969 25.8082Z" fill="#706D64"/>
<path d="M147.572 23.7131C147.572 23.4268 147.623 23.1578 147.725 22.9062C147.836 22.646 147.985 22.4247 148.172 22.2425C148.359 22.0517 148.576 21.9042 148.822 21.8001C149.077 21.6873 149.354 21.6309 149.652 21.6309C149.941 21.6309 150.213 21.6873 150.468 21.8001C150.723 21.9042 150.944 22.0517 151.131 22.2425C151.318 22.4247 151.463 22.646 151.565 22.9062C151.676 23.1578 151.731 23.4268 151.731 23.7131C151.731 24.008 151.676 24.2813 151.565 24.5329C151.463 24.7845 151.318 25.0057 151.131 25.1966C150.944 25.3788 150.723 25.5219 150.468 25.626C150.213 25.7301 149.941 25.7822 149.652 25.7822C149.354 25.7822 149.077 25.7301 148.822 25.626C148.576 25.5219 148.359 25.3788 148.172 25.1966C147.985 25.0057 147.836 24.7845 147.725 24.5329C147.623 24.2813 147.572 24.008 147.572 23.7131Z" fill="#FBAA0D"/>
<defs>
<linearGradient id="paint0_linear" x1="26.4662" y1="1.01186" x2="4.42261" y2="28.4616" gradientUnits="userSpaceOnUse">
<stop stop-color="white"/>
<stop offset="1" stop-color="#FBAA0D"/>
</linearGradient>
</defs>
</svg>
