<svg width="381" height="52" viewBox="0 0 381 52" fill="none" xmlns="http://www.w3.org/2000/svg">
<path d="M29.552 14.096C28.1867 12.9867 26.8213 12.176 25.456 11.664C24.0907 11.1093 22.768 10.832 21.488 10.832C19.8667 10.832 18.544 11.216 17.52 11.984C16.496 12.752 15.984 13.7547 15.984 14.992C15.984 15.8453 16.24 16.5493 16.752 17.104C17.264 17.6587 17.9253 18.1493 18.736 18.576C19.5893 18.96 20.528 19.3013 21.552 19.6C22.6187 19.8987 23.664 20.2187 24.688 20.56C28.784 21.9253 31.7707 23.76 33.648 26.064C35.568 28.3253 36.528 31.2907 36.528 34.96C36.528 37.4347 36.1013 39.6747 35.248 41.68C34.4373 43.6853 33.2213 45.4133 31.6 46.864C30.0213 48.272 28.0587 49.36 25.712 50.128C23.408 50.9387 20.784 51.344 17.84 51.344C11.7387 51.344 6.08533 49.5307 0.88 45.904L6.256 35.792C8.13333 37.456 9.98933 38.6933 11.824 39.504C13.6587 40.3147 15.472 40.72 17.264 40.72C19.312 40.72 20.8267 40.2507 21.808 39.312C22.832 38.3733 23.344 37.3067 23.344 36.112C23.344 35.3867 23.216 34.768 22.96 34.256C22.704 33.7013 22.2773 33.2107 21.68 32.784C21.0827 32.3147 20.2933 31.888 19.312 31.504C18.3733 31.12 17.2213 30.6933 15.856 30.224C14.2347 29.712 12.6347 29.1573 11.056 28.56C9.52 27.92 8.13333 27.088 6.896 26.064C5.70133 25.04 4.72 23.76 3.952 22.224C3.22667 20.6453 2.864 18.6613 2.864 16.272C2.864 13.8827 3.248 11.728 4.016 9.808C4.82667 7.84533 5.936 6.18133 7.344 4.816C8.79467 3.408 10.544 2.32 12.592 1.552C14.6827 0.783998 17.008 0.399998 19.568 0.399998C21.9573 0.399998 24.4533 0.74133 27.056 1.424C29.6587 2.064 32.1547 3.024 34.544 4.304L29.552 14.096ZM57.615 23.888H61.775C66.383 23.888 68.687 21.8827 68.687 17.872C68.687 13.8613 66.383 11.856 61.775 11.856H57.615V23.888ZM57.615 50H45.071V1.744H65.039C70.4577 1.744 74.5963 3.152 77.455 5.968C80.3563 8.784 81.807 12.752 81.807 17.872C81.807 22.992 80.3563 26.96 77.455 29.776C74.5963 32.592 70.4577 34 65.039 34H57.615V50ZM100.03 25.872C100.03 27.792 100.393 29.5627 101.118 31.184C101.843 32.8053 102.825 34.2133 104.062 35.408C105.299 36.6027 106.729 37.5413 108.35 38.224C110.014 38.864 111.763 39.184 113.598 39.184C115.433 39.184 117.161 38.864 118.782 38.224C120.446 37.5413 121.897 36.6027 123.134 35.408C124.414 34.2133 125.417 32.8053 126.142 31.184C126.867 29.5627 127.23 27.792 127.23 25.872C127.23 23.952 126.867 22.1813 126.142 20.56C125.417 18.9387 124.414 17.5307 123.134 16.336C121.897 15.1413 120.446 14.224 118.782 13.584C117.161 12.9013 115.433 12.56 113.598 12.56C111.763 12.56 110.014 12.9013 108.35 13.584C106.729 14.224 105.299 15.1413 104.062 16.336C102.825 17.5307 101.843 18.9387 101.118 20.56C100.393 22.1813 100.03 23.952 100.03 25.872ZM86.91 25.872C86.91 22.288 87.5713 18.96 88.894 15.888C90.2167 12.7733 92.0513 10.064 94.398 7.76C96.7447 5.456 99.5393 3.664 102.782 2.384C106.067 1.06133 109.673 0.399998 113.598 0.399998C117.481 0.399998 121.065 1.06133 124.35 2.384C127.635 3.664 130.451 5.456 132.798 7.76C135.187 10.064 137.043 12.7733 138.366 15.888C139.689 18.96 140.35 22.288 140.35 25.872C140.35 29.456 139.689 32.8053 138.366 35.92C137.043 38.992 135.187 41.68 132.798 43.984C130.451 46.288 127.635 48.1013 124.35 49.424C121.065 50.704 117.481 51.344 113.598 51.344C109.673 51.344 106.067 50.704 102.782 49.424C99.5393 48.1013 96.7447 46.288 94.398 43.984C92.0513 41.68 90.2167 38.992 88.894 35.92C87.5713 32.8053 86.91 29.456 86.91 25.872ZM166.717 12.368V50H154.173V12.368H143.869V1.744H177.021V12.368H166.717ZM195.785 1.744V39.376H210.825V50H183.241V1.744H195.785ZM230.487 1.744V50H217.943V1.744H230.487ZM264.696 22.992H289.592C289.592 25.552 289.486 27.8773 289.272 29.968C289.059 32.0587 288.632 34 287.993 35.792C287.096 38.3093 285.88 40.5493 284.344 42.512C282.808 44.432 280.995 46.0533 278.904 47.376C276.856 48.656 274.595 49.6373 272.12 50.32C269.646 51.0027 267.043 51.344 264.312 51.344C260.558 51.344 257.123 50.7253 254.008 49.488C250.936 48.2507 248.291 46.5227 246.072 44.304C243.854 42.0427 242.126 39.3547 240.888 36.24C239.651 33.0827 239.032 29.6053 239.032 25.808C239.032 22.0533 239.63 18.6187 240.824 15.504C242.062 12.3467 243.79 9.65866 246.008 7.44C248.27 5.22133 250.979 3.49333 254.136 2.256C257.294 1.01866 260.814 0.399998 264.696 0.399998C269.731 0.399998 274.147 1.488 277.944 3.664C281.742 5.84 284.75 9.21066 286.968 13.776L275.064 18.704C273.955 16.0587 272.504 14.16 270.712 13.008C268.963 11.856 266.958 11.28 264.696 11.28C262.819 11.28 261.112 11.6427 259.576 12.368C258.04 13.0507 256.718 14.0533 255.608 15.376C254.542 16.656 253.688 18.2133 253.048 20.048C252.451 21.8827 252.152 23.9307 252.152 26.192C252.152 28.24 252.408 30.1387 252.92 31.888C253.475 33.6373 254.286 35.152 255.352 36.432C256.419 37.712 257.742 38.7147 259.32 39.44C260.899 40.1227 262.734 40.464 264.824 40.464C266.062 40.464 267.256 40.336 268.408 40.08C269.56 39.7813 270.584 39.3333 271.48 38.736C272.419 38.096 273.187 37.2853 273.784 36.304C274.382 35.3227 274.787 34.128 275 32.72H264.696V22.992ZM310.705 20.368H328.817V1.744H341.361V50H328.817V30.096H310.705V50H298.161V1.744H310.705V20.368ZM370.417 12.368V50H357.873V12.368H347.569V1.744H380.721V12.368H370.417Z" fill="#364370"/>
</svg>
